<svg xmlns="http://www.w3.org/2000/svg" width="1600" height="900" viewBox="0 0 1600 900"><defs><linearGradient id="bg" x2="1" y2="1"><stop stop-color="#061426"/><stop offset="1" stop-color="#081b31"/></linearGradient></defs><rect width="1600" height="900" fill="url(#bg)"/><g font-family="DejaVu Sans,Arial" fill="#eaf2ff"><rect x="0" y="0" width="220" height="900" fill="#07182b" stroke="#193756"/><text x="24" y="42" font-size="23" font-weight="700">▣ VideoBatch Fast</text><text x="24" y="65" font-size="12" fill="#8ea7c2">Batch Video Processing</text><g font-size="15"><rect x="14" y="86" width="192" height="44" rx="10" fill="#173f85"/><text x="34" y="114">⌂ Dashboard</text><text x="34" y="166">▧ Medien</text><text x="34" y="214">☷ Queue</text><text x="34" y="262">✦ Effekte</text><text x="34" y="310">◷ Scheduler</text><text x="34" y="358">▣ Vorschau</text><text x="34" y="406">◎ Diagnose</text><text x="34" y="454">⚙ Einstellungen</text></g><rect x="14" y="718" width="192" height="150" rx="14" fill="#0b2037" stroke="#214361"/><text x="28" y="748" font-size="14" font-weight="700">Systemstatus</text><text x="28" y="780" font-size="13" fill="#72e39b">● CPU 18 %</text><text x="28" y="808" font-size="13" fill="#72e39b">● RAM 6,4 / 32 GB</text><text x="28" y="836" font-size="13" fill="#72e39b">● Alle Systeme bereit</text><rect x="220" y="0" width="1380" height="58" fill="#07172a" stroke="#193756"/><rect x="244" y="12" width="360" height="36" rx="10" fill="#0d223a" stroke="#24435f"/><text x="266" y="36" font-size="13" fill="#8ea7c2">Medien, Jobs, Effekte suchen …</text><text x="1080" y="35" font-size="12" fill="#72e39b">FFmpeg 6.1   GPU Accel   Cache 1,2 GB</text><text x="1510" y="36" font-size="18">⚙</text><g stroke-width="1"><rect x="244" y="76" width="305" height="148" rx="16" fill="#0d2747" stroke="#2764b8"/><rect x="565" y="76" width="305" height="148" rx="16" fill="#1a2047" stroke="#6c52d8"/><rect x="886" y="76" width="305" height="148" rx="16" fill="#0b3038" stroke="#25a8a1"/><rect x="1207" y="76" width="369" height="148" rx="16" fill="#2a251f" stroke="#b67b25"/></g><text x="268" y="108" font-size="18" font-weight="700">Medien</text><text x="268" y="151" font-size="29">1.248</text><text x="390" y="151" font-size="29">326</text><text x="486" y="151" font-size="29">98</text><text x="268" y="178" font-size="12" fill="#8ea7c2">Bilder</text><text x="390" y="178" font-size="12" fill="#8ea7c2">Videos</text><text x="486" y="178" font-size="12" fill="#8ea7c2">Audio</text><text x="589" y="108" font-size="18" font-weight="700">Queue</text><text x="589" y="157" font-size="34">8</text><text x="754" y="157" font-size="34">24</text><text x="589" y="184" font-size="12" fill="#8ea7c2">Wartend</text><text x="754" y="184" font-size="12" fill="#8ea7c2">Abgeschlossen</text><text x="910" y="108" font-size="18" font-weight="700">Effekte</text><text x="910" y="150" font-size="18">Cinematic Look</text><rect x="1040" y="132" width="126" height="31" rx="8" fill="#0b492f"/><text x="1060" y="153" font-size="12" fill="#72e39b">RenderProof ✓</text><text x="1231" y="108" font-size="18" font-weight="700">Startzeituhr</text><text x="1231" y="158" font-size="38">23:30</text><text x="1231" y="184" font-size="12" fill="#dca74a">Heute Abend</text><text x="1390" y="140" font-size="12" fill="#72e39b">● PC eingeschaltet</text><text x="1390" y="166" font-size="12" fill="#e9ae42">● Optional bei Leerlauf</text><rect x="244" y="240" width="1332" height="54" rx="14" fill="#0b1d32" stroke="#203d59"/><rect x="258" y="249" width="145" height="36" rx="9" fill="#2466e4"/><text x="279" y="273" font-size="13">＋ Neuer Auftrag</text><text x="438" y="273" font-size="13">Medien importieren</text><text x="608" y="273" font-size="13">Effekte prüfen</text><text x="748" y="273" font-size="13">Startzeituhr setzen</text><text x="934" y="273" font-size="13" fill="#72e39b">▶ Queue starten</text><text x="1085" y="273" font-size="13">Backup</text><rect x="244" y="310" width="210" height="430" rx="15" fill="#0a1d32" stroke="#214361"/><rect x="468" y="310" width="670" height="430" rx="15" fill="#0a1d32" stroke="#214361"/><rect x="1152" y="310" width="424" height="430" rx="15" fill="#0a1d32" stroke="#214361"/><text x="262" y="339" font-size="15" font-weight="700">Quellen &amp; Projekte</text><g font-size="12" fill="#b8c9da"><text x="262" y="376">▣ Alle Medien      1.672</text><text x="262" y="406">★ Favoriten          152</text><text x="262" y="436">▧ Urlaub 2024     312</text><text x="262" y="466">▧ Events               198</text><text x="262" y="496">▧ Produkte             85</text><text x="262" y="548">Filter</text><text x="262" y="578">Bilder  1.248</text><text x="262" y="608">Videos   326</text><text x="262" y="638">Audio      98</text></g><text x="488" y="339" font-size="15" font-weight="700">Render Queue</text><text x="622" y="339" font-size="12" fill="#65a4ff">8 Wartend</text><text x="708" y="339" font-size="12" fill="#72e39b">24 Abgeschlossen</text><g font-size="11" fill="#8ea7c2"><text x="494" y="372">Job</text><text x="745" y="372">Effekt</text><text x="874" y="372">Zeitplan</text><text x="960" y="372">Status</text><text x="1042" y="372">Fortschritt</text></g><g><rect x="482" y="386" width="642" height="48" rx="8" fill="#123a76"/><rect x="482" y="440" width="642" height="48" rx="8" fill="#0d243c"/><rect x="482" y="494" width="642" height="48" rx="8" fill="#0d243c"/><rect x="482" y="548" width="642" height="48" rx="8" fill="#0d243c"/></g><g font-size="12"><text x="500" y="416">Sonnenuntergang.mp4</text><text x="748" y="416">Cinematic Look</text><text x="876" y="416">Heute 23:30</text><text x="962" y="416">Wartend</text><text x="500" y="470">Bergpanorama.mp4</text><text x="748" y="470">Color Boost</text><text x="876" y="470">Heute 23:30</text><text x="962" y="470">Wartend</text><text x="500" y="524">Produktvideo.mp4</text><text x="748" y="524">Sharp &amp; Clean</text><text x="962" y="524" fill="#65a4ff">Verarbeitet</text><text x="1060" y="524">42 %</text><text x="500" y="578">Drohnenflug.mp4</text><text x="748" y="578">Vivid Nature</text><text x="962" y="578" fill="#72e39b">Fertig ✓</text><text x="1060" y="578">100 %</text></g><text x="1172" y="339" font-size="15" font-weight="700">Job Details</text><rect x="1170" y="355" width="388" height="200" rx="12" fill="#17283d"/><rect x="1190" y="375" width="348" height="150" rx="9" fill="#d77b38"/><circle cx="1364" cy="444" r="33" fill="#ffd073"/><path d="M1190 492 Q1290 438 1380 490 T1538 475 V525 H1190Z" fill="#172f48"/><text x="1180" y="585" font-size="13">Effekt-Preset: Cinematic Look</text><text x="1180" y="618" font-size="13">Ausgabe: 1920 × 1080 · H.264 · CRF 18</text><rect x="1180" y="648" width="360" height="65" rx="12" fill="#0d3c2a" stroke="#278e5d"/><text x="1200" y="677" font-size="14" font-weight="700" fill="#72e39b">RenderProof – Bestanden</text><text x="1200" y="699" font-size="11" fill="#a9ddbd">Effektvertrag und Ausgabe bestätigt</text><rect x="244" y="755" width="894" height="96" rx="16" fill="#0c2038" stroke="#31527a"/><text x="264" y="785" font-size="16" font-weight="700">Startzeituhr · Geplanter Start aktiv</text><text x="264" y="823" font-size="25" fill="#9b8cff">◷ 23:30</text><text x="430" y="810" font-size="12">Datum: Heute</text><text x="430" y="834" font-size="12">PC eingeschaltet halten · Leerlaufstart · Energieprofil Ruhig</text><rect x="1152" y="755" width="424" height="96" rx="16" fill="#0c2038" stroke="#31527a"/><text x="1172" y="785" font-size="15" font-weight="700">Darstellung</text><text x="1172" y="815" font-size="12">Themes: Midnight · Emerald · Violet · Amber</text><text x="1172" y="839" font-size="12">Schrift: Kompakt · Standard · Groß</text><rect x="220" y="868" width="1380" height="32" fill="#07172a"/><text x="244" y="889" font-size="11" fill="#8ea7c2">CPU 18 %   RAM 6,4 / 32 GB   FFmpeg 6.1   GPU aktiv   Cache 1,2 GB   Projektordner   Backup OK   Alle Systeme bereit</text></g></svg>