<svg xmlns="http://www.w3.org/2000/svg" width="1200" height="1500" viewBox="0 0 1200 1500"><rect width="1200" height="1500" fill="#061426"/><g font-family="DejaVu Sans,Arial" fill="#eaf2ff"><text x="38" y="58" font-size="34" font-weight="700">VideoBatch Fast – Grafik-Manifest</text><text x="38" y="88" font-size="16" fill="#8ea7c2">Kanonische visuelle Referenz für alle zukünftigen Iterationen · VB-GFX-1.0</text><g stroke="#234767" fill="#0a1d32"><rect x="30" y="115" width="300" height="280" rx="16"/><rect x="345" y="115" width="825" height="280" rx="16"/><rect x="30" y="410" width="1140" height="260" rx="16"/><rect x="30" y="685" width="360" height="270" rx="16"/><rect x="405" y="685" width="465" height="270" rx="16"/><rect x="885" y="685" width="285" height="270" rx="16"/><rect x="30" y="970" width="360" height="235" rx="16"/><rect x="405" y="970" width="365" height="235" rx="16"/><rect x="785" y="970" width="385" height="235" rx="16"/><rect x="30" y="1220" width="1140" height="245" rx="16"/></g><text x="50" y="148" font-size="18" font-weight="700">1 · DESIGNPRINZIPIEN</text><g font-size="14"><text x="52" y="185">✦ Modern &amp; professionell</text><text x="52" y="220">◎ Klar &amp; projektbezogen</text><text x="52" y="255">☷ Luftig &amp; fokussiert</text><text x="52" y="290">◐ Hoher Kontrast</text><text x="52" y="325">▢ Konsistente Radien</text><text x="52" y="360">✓ Klare Zustände</text></g><text x="365" y="148" font-size="18" font-weight="700">2 · PFLICHT-LAYOUTSTRUKTUR</text><rect x="370" y="170" width="120" height="190" fill="#07182b" stroke="#315d87"/><rect x="500" y="170" width="640" height="34" rx="7" fill="#102b46"/><g fill="#14345a"><rect x="500" y="214" width="150" height="55" rx="8"/><rect x="660" y="214" width="150" height="55" rx="8"/><rect x="820" y="214" width="150" height="55" rx="8"/><rect x="980" y="214" width="160" height="55" rx="8"/></g><rect x="500" y="279" width="640" height="28" rx="7" fill="#0f2c3d"/><rect x="500" y="317" width="150" height="43" rx="7" fill="#102b46"/><rect x="660" y="317" width="300" height="43" rx="7" fill="#102b46"/><rect x="970" y="317" width="170" height="43" rx="7" fill="#102b46"/><g font-size="12" fill="#9fb4c9"><text x="380" y="385">Sidebar</text><text x="506" y="385">Header · KPI · Aktionen · 3-Spalten-Workspace · Scheduler · Footer</text></g><text x="50" y="443" font-size="18" font-weight="700">3 · KOMPONENTENREGELN</text><g font-size="13"><text x="55" y="485">SIDEBAR</text><rect x="50" y="500" width="125" height="38" rx="8" fill="#1d58bd"/><text x="67" y="525">Aktiv</text><text x="210" y="485">CARDS</text><rect x="205" y="500" width="125" height="92" rx="16" fill="#112b45"/><text x="220" y="535">1.248</text><text x="365" y="485">BUTTONS</text><rect x="360" y="500" width="120" height="36" rx="10" fill="#2466e4"/><text x="394" y="523">Primär</text><text x="515" y="485">INPUTS</text><rect x="510" y="500" width="145" height="36" rx="10" fill="#10263d" stroke="#3c75b4"/><text x="526" y="523">Suche …</text><text x="690" y="485">TABS</text><text x="690" y="525" fill="#65a4ff">Aktiv</text><text x="770" y="525">Inaktiv</text><text x="855" y="485">CHIPS</text><rect x="850" y="500" width="85" height="28" rx="14" fill="#0d4a31"/><text x="870" y="520" fill="#72e39b">Fertig</text><text x="965" y="485">PROGRESS</text><rect x="965" y="508" width="160" height="8" rx="4" fill="#213c55"/><rect x="965" y="508" width="112" height="8" rx="4" fill="#4a8cff"/></g><text x="50" y="718" font-size="18" font-weight="700">4 · PFLICHTMODULE</text><g font-size="14"><text x="55" y="762">◷ Startzeituhr</text><text x="55" y="802">✓ RenderProof</text><text x="55" y="842">☷ Queue</text><text x="55" y="882">▣ Medienverwaltung</text><text x="55" y="922">◎ Diagnose · Backup · Projektordner</text></g><text x="425" y="718" font-size="18" font-weight="700">5 · 4 FARBTHEMES</text><g font-size="13"><text x="425" y="758">Midnight Blue</text><rect x="425" y="770" width="90" height="35" rx="7" fill="#2466e4"/><text x="535" y="758">Emerald Tech</text><rect x="535" y="770" width="90" height="35" rx="7" fill="#20b779"/><text x="645" y="758">Violet Pulse</text><rect x="645" y="770" width="90" height="35" rx="7" fill="#8b5ee8"/><text x="755" y="758">Amber Graphite</text><rect x="755" y="770" width="90" height="35" rx="7" fill="#e9983e"/></g><text x="425" y="850" font-size="14">Statusbedeutungen bleiben themeübergreifend konsistent.</text><text x="905" y="718" font-size="18" font-weight="700">6 · SCHRIFTGRÖSSE</text><g font-size="14"><text x="910" y="770">Aa Kompakt · 90 %</text><text x="910" y="820">Aa Standard · 105 %</text><text x="910" y="870">Aa Groß · 125 %</text></g><text x="50" y="1003" font-size="18" font-weight="700">7 · TYPOGRAFIE</text><g font-size="13"><text x="55" y="1045">Display 32/40 · Semibold</text><text x="55" y="1080">H1 24/32 · H2 20/28</text><text x="55" y="1115">H3 16/24 · Body 14/20</text><text x="55" y="1150">Caption 12/16 · Label 10/14</text></g><text x="425" y="1003" font-size="18" font-weight="700">8 · SPACING &amp; RADIUS</text><g font-size="13"><text x="430" y="1045">8-Punkt-Raster · 4 px Zwischenschritt</text><text x="430" y="1080">Karten: 16 px · Drawer: 24 px</text><text x="430" y="1115">Chips: 999 px · Fokusrahmen: 2 px</text><text x="430" y="1150">Padding: 16 / 20 / 24 px</text></g><text x="805" y="1003" font-size="18" font-weight="700">9 · ITERATIONSREGEL</text><g font-size="13"><text x="810" y="1045">✓ Mindestens eine vollständige Umsetzung</text><text x="810" y="1080">✓ Prüfung gegen Manifest</text><text x="810" y="1115">✓ Abweichungen vor Abschluss korrigieren</text><text x="810" y="1150">✓ Kein Mockup zählt als Implementierung</text></g><text x="50" y="1253" font-size="18" font-weight="700">10 · VISUELLER ABGLEICH – KANONISCHES UI</text><rect x="50" y="1275" width="780" height="165" rx="12" fill="#07182b" stroke="#315d87"/><rect x="65" y="1290" width="100" height="135" fill="#0b2037"/><rect x="178" y="1290" width="637" height="24" rx="5" fill="#102b46"/><g fill="#14345a"><rect x="178" y="1324" width="145" height="44" rx="7"/><rect x="333" y="1324" width="145" height="44" rx="7"/><rect x="488" y="1324" width="145" height="44" rx="7"/><rect x="643" y="1324" width="172" height="44" rx="7"/></g><rect x="178" y="1378" width="150" height="47" rx="7" fill="#102b46"/><rect x="338" y="1378" width="300" height="47" rx="7" fill="#102b46"/><rect x="648" y="1378" width="167" height="47" rx="7" fill="#102b46"/><text x="860" y="1305" font-size="15" fill="#72e39b">Verbindlich &amp; dauerhaft</text><text x="860" y="1340" font-size="13">Gültig ab: 06.08.2026</text><text x="860" y="1375" font-size="13">Version 1.0</text><text x="860" y="1420" font-size="18" font-weight="700">VideoBatch Fast</text></g></svg>